ffmpeg started on 2025-06-07 at 16:26:11
Report written to "D:\Convert\FFMetrics\reports\psnr_report-6.txt"
Log level: 32
Command line:
ffmpeg -hide_banner -nostdin -i "G:\\\xc0\xed\xe8\xec\xe5\\\xce\xed\xe3\xee\xe8\xed\xe3\xe8\\!_36_\xce\xf1\xe5\xed\xfc_2024\\DreamCast\\\xd6\xe8\xea\xeb \xe8\xf1\xf2\xee\xf0\xe8\xe9 - \xcc\xe5\xe6\xf1\xe5\xe7\xee\xed\xfc\xe5 \xe8 \xf1\xe5\xe7\xee\xed \xec\xee\xed\xf1\xf2\xf0\xee\xe2\\DC_Monogatari_Series_Off_and_Monster_Season_02_Telegram_HEVC.mkv" -i "G:\\\xc0\xed\xe8\xec\xe5\\\xce\xed\xe3\xee\xe8\xed\xe3\xe8\\!_36_\xce\xf1\xe5\xed\xfc_2024\\DreamCast\\\xd6\xe8\xea\xeb \xe8\xf1\xf2\xee\xf0\xe8\xe9 - \xcc\xe5\xe6\xf1\xe5\xe7\xee\xed\xfc\xe5 \xe8 \xf1\xe5\xe7\xee\xed \xec\xee\xed\xf1\xf2\xf0\xee\xe2\\DC_Monogatari_Series_Off_and_Monster_Season_02_Telegram.mp4" -lavfi "[0:v]settb=AVTB,setpts=PTS-STARTPTS,format=pix_fmts=yuv420p10,fps=24000/1001,scale=1920:1080:flags=bicubic[main];[1:v]settb=AVTB,setpts=PTS-STARTPTS,format=pix_fmts=yuv420p,fps=24000/1001,scale=1920:1080:flags=bicubic[ref];[main][ref]psnr=eof_action=endall:stats_file='D\\:/Convert/FFMetrics/logs/psnr_logfile-6.txt'" -f null -
Input #0, matroska,webm, from 'G:\Аниме\Онгоинги\!_36_Осень_2024\DreamCast\Цикл историй - Межсезонье и сезон монстров\DC_Monogatari_Series_Off_and_Monster_Season_02_Telegram_HEVC.mkv':
  Metadata:
    COMPATIBLE_BRANDS: isomiso2avc1mp41
    MAJOR_BRAND     : isom
    MINOR_VERSION   : 512
    ENCODER         : Lavf61.7.100
  Duration: 00:23:43.45, start: -0.021000, bitrate: 1799 kb/s
  Stream #0:0: Video: hevc (Main 10), yuv420p10le(tv, bt709, progressive), 1920x1080 [SAR 1:1 DAR 16:9], 23.98 fps, 23.98 tbr, 1k tbn (default)
      Metadata:
        HANDLER_NAME    : VideoHandler
        VENDOR_ID       : [0][0][0][0]
        ENCODER         : Lavc61.19.100 libx265
        BPS             : 1604645
        DURATION        : 00:23:41.503708333
        NUMBER_OF_FRAMES: 34082
        NUMBER_OF_BYTES : 285126102
        _STATISTICS_WRITING_APP: mkvpropedit v66.0.0 ('Josie') 64-bit
        _STATISTICS_WRITING_DATE_UTC: 2025-06-05 10:06:51
        _STATISTICS_TAGS: BPS DURATION NUMBER_OF_FRAMES NUMBER_OF_BYTES
  Stream #0:1: Audio: aac (LC), 48000 Hz, stereo, fltp (default)
      Metadata:
        HANDLER_NAME    : SoundHandler
        VENDOR_ID       : [0][0][0][0]
        ENCODER         : Lavc61.19.100 aac
        BPS             : 192730
        DURATION        : 00:23:43.445000000
        NUMBER_OF_FRAMES: 66725
        NUMBER_OF_BYTES : 34292658
        _STATISTICS_WRITING_APP: mkvpropedit v66.0.0 ('Josie') 64-bit
        _STATISTICS_WRITING_DATE_UTC: 2025-06-05 10:06:51
        _STATISTICS_TAGS: BPS DURATION NUMBER_OF_FRAMES NUMBER_OF_BYTES
Input #1, mov,mp4,m4a,3gp,3g2,mj2, from 'G:\Аниме\Онгоинги\!_36_Осень_2024\DreamCast\Цикл историй - Межсезонье и сезон монстров\DC_Monogatari_Series_Off_and_Monster_Season_02_Telegram.mp4':
  Metadata:
    major_brand     : isom
    minor_version   : 512
    compatible_brands: isomiso2avc1mp41
    encoder         : Lavf60.16.100
  Duration: 00:23:43.41, start: 0.000000, bitrate: 3660 kb/s
  Stream #1:0[0x1](und): Video: h264 (High) (avc1 / 0x31637661), yuv420p(tv, bt709, progressive), 1920x1080 [SAR 1:1 DAR 16:9], 3517 kb/s, 23.98 fps, 23.98 tbr, 24k tbn (default)
      Metadata:
        handler_name    : VideoHandler
        vendor_id       : [0][0][0][0]
        encoder         : Lavc60.31.102 h264_qsv
  Stream #1:1[0x2](und): Audio: aac (HE-AACv2) (mp4a / 0x6134706D), 48000 Hz, stereo, fltp, 144 kb/s (default)
      Metadata:
        handler_name    : SoundHandler
        vendor_id       : [0][0][0][0]
Stream mapping:
  Stream #0:0 (hevc) -> settb:default
  Stream #1:0 (h264) -> settb:default
  psnr:default -> Stream #0:0 (wrapped_avframe)
  Stream #0:1 -> #0:1 (aac (native) -> pcm_s16le (native))
Output #0, null, to 'pipe:':
  Metadata:
    COMPATIBLE_BRANDS: isomiso2avc1mp41
    MAJOR_BRAND     : isom
    MINOR_VERSION   : 512
    encoder         : Lavf61.7.100
  Stream #0:0: Video: wrapped_avframe, yuv420p10le(tv, bt709, progressive), 1920x1080 [SAR 1:1 DAR 16:9], q=2-31, 200 kb/s, 23.98 fps, 23.98 tbn
      Metadata:
        encoder         : Lavc61.19.100 wrapped_avframe
  Stream #0:1: Audio: pcm_s16le, 48000 Hz, stereo, s16, 1536 kb/s (default)
      Metadata:
        HANDLER_NAME    : SoundHandler
        VENDOR_ID       : [0][0][0][0]
        _STATISTICS_TAGS: BPS DURATION NUMBER_OF_FRAMES NUMBER_OF_BYTES
        BPS             : 192730
        DURATION        : 00:23:43.445000000
        NUMBER_OF_FRAMES: 66725
        NUMBER_OF_BYTES : 34292658
        _STATISTICS_WRITING_APP: mkvpropedit v66.0.0 ('Josie') 64-bit
        _STATISTICS_WRITING_DATE_UTC: 2025-06-05 10:06:51
        encoder         : Lavc61.19.100 pcm_s16le
frame=  173 fps=0.0 q=-0.0 size=N/A time=00:00:07.21 bitrate=N/A speed=  14x    frame=  338 fps=330 q=-0.0 size=N/A time=00:00:14.09 bitrate=N/A speed=13.8x    frame=  567 fps=369 q=-0.0 size=N/A time=00:00:23.64 bitrate=N/A speed=15.4x    frame=  790 fps=383 q=-0.0 size=N/A time=00:00:32.94 bitrate=N/A speed=  16x    frame=  987 fps=384 q=-0.0 size=N/A time=00:00:41.16 bitrate=N/A speed=  16x    frame= 1214 fps=394 q=-0.0 size=N/A time=00:00:50.63 bitrate=N/A speed=16.4x    frame= 1450 fps=402 q=-0.0 size=N/A time=00:01:00.47 bitrate=N/A speed=16.8x    frame= 1615 fps=392 q=-0.0 size=N/A time=00:01:07.35 bitrate=N/A speed=16.4x    frame= 1827 fps=394 q=-0.0 size=N/A time=00:01:16.20 bitrate=N/A speed=16.4x    frame= 1976 fps=382 q=-0.0 size=N/A time=00:01:22.41 bitrate=N/A speed=15.9x    frame= 2240 fps=394 q=-0.0 size=N/A time=00:01:33.42 bitrate=N/A speed=16.4x    frame= 2474 fps=400 q=-0.0 size=N/A time=00:01:43.18 bitrate=N/A speed=16.7x    frame= 2689 fps=400 q=-0.0 size=N/A time=00:01:52.15 bitrate=N/A speed=16.7x    frame= 2891 fps=400 q=-0.0 size=N/A time=00:02:00.57 bitrate=N/A speed=16.7x    frame= 3106 fps=401 q=-0.0 size=N/A time=00:02:09.54 bitrate=N/A speed=16.7x    frame= 3363 fps=407 q=-0.0 size=N/A time=00:02:20.26 bitrate=N/A speed=  17x    frame= 3604 fps=411 q=-0.0 size=N/A time=00:02:30.31 bitrate=N/A speed=17.1x    frame= 3858 fps=416 q=-0.0 size=N/A time=00:02:40.91 bitrate=N/A speed=17.3x    frame= 4116 fps=420 q=-0.0 size=N/A time=00:02:51.67 bitrate=N/A speed=17.5x    frame= 4387 fps=425 q=-0.0 size=N/A time=00:03:02.97 bitrate=N/A speed=17.7x    frame= 4566 fps=421 q=-0.0 size=N/A time=00:03:10.44 bitrate=N/A speed=17.6x    frame= 4849 fps=427 q=-0.0 size=N/A time=00:03:22.24 bitrate=N/A speed=17.8x    frame= 5075 fps=428 q=-0.0 size=N/A time=00:03:31.66 bitrate=N/A speed=17.8x    frame= 5332 fps=430 q=-0.0 size=N/A time=00:03:42.38 bitrate=N/A speed=  18x    frame= 5572 fps=432 q=-0.0 size=N/A time=00:03:52.39 bitrate=N/A speed=  18x    frame= 5823 fps=434 q=-0.0 size=N/A time=00:04:02.86 bitrate=N/A speed=18.1x    frame= 6062 fps=435 q=-0.0 size=N/A time=00:04:12.83 bitrate=N/A speed=18.1x    frame= 6304 fps=437 q=-0.0 size=N/A time=00:04:22.92 bitrate=N/A speed=18.2x    frame= 6529 fps=436 q=-0.0 size=N/A time=00:04:32.31 bitrate=N/A speed=18.2x    frame= 6770 fps=437 q=-0.0 size=N/A time=00:04:42.36 bitrate=N/A speed=18.2x    frame= 6917 fps=433 q=-0.0 size=N/A time=00:04:48.49 bitrate=N/A speed=  18x    frame= 7142 fps=433 q=-0.0 size=N/A time=00:04:57.88 bitrate=N/A speed=  18x    frame= 7339 fps=431 q=-0.0 size=N/A time=00:05:06.09 bitrate=N/A speed=  18x    frame= 7542 fps=430 q=-0.0 size=N/A time=00:05:14.56 bitrate=N/A speed=17.9x    frame= 7810 fps=433 q=-0.0 size=N/A time=00:05:25.74 bitrate=N/A speed=  18x    frame= 7997 fps=430 q=-0.0 size=N/A time=00:05:33.54 bitrate=N/A speed=  18x    frame= 8183 fps=429 q=-0.0 size=N/A time=00:05:41.29 bitrate=N/A speed=17.9x    frame= 8433 fps=430 q=-0.0 size=N/A time=00:05:51.72 bitrate=N/A speed=17.9x    frame= 8644 fps=430 q=-0.0 size=N/A time=00:06:00.52 bitrate=N/A speed=17.9x    frame= 8890 fps=431 q=-0.0 size=N/A time=00:06:10.78 bitrate=N/A speed=  18x    frame= 9155 fps=433 q=-0.0 size=N/A time=00:06:21.83 bitrate=N/A speed=18.1x    frame= 9398 fps=434 q=-0.0 size=N/A time=00:06:31.97 bitrate=N/A speed=18.1x    frame= 9641 fps=435 q=-0.0 size=N/A time=00:06:42.11 bitrate=N/A speed=18.1x    frame= 9913 fps=437 q=-0.0 size=N/A time=00:06:53.45 bitrate=N/A speed=18.2x    frame=10164 fps=438 q=-0.0 size=N/A time=00:07:03.92 bitrate=N/A speed=18.3x    frame=10438 fps=440 q=-0.0 size=N/A time=00:07:15.35 bitrate=N/A speed=18.3x    frame=10713 fps=442 q=-0.0 size=N/A time=00:07:26.82 bitrate=N/A speed=18.4x    frame=10992 fps=444 q=-0.0 size=N/A time=00:07:38.45 bitrate=N/A speed=18.5x    frame=11253 fps=445 q=-0.0 size=N/A time=00:07:49.34 bitrate=N/A speed=18.6x    frame=11537 fps=447 q=-0.0 size=N/A time=00:08:01.18 bitrate=N/A speed=18.7x    frame=11799 fps=449 q=-0.0 size=N/A time=00:08:12.11 bitrate=N/A speed=18.7x    frame=12080 fps=450 q=-0.0 size=N/A time=00:08:23.83 bitrate=N/A speed=18.8x    frame=12348 fps=452 q=-0.0 size=N/A time=00:08:35.01 bitrate=N/A speed=18.8x    frame=12613 fps=453 q=-0.0 size=N/A time=00:08:46.06 bitrate=N/A speed=18.9x    frame=12857 fps=453 q=-0.0 size=N/A time=00:08:56.24 bitrate=N/A speed=18.9x    frame=13123 fps=454 q=-0.0 size=N/A time=00:09:07.33 bitrate=N/A speed=18.9x    frame=13395 fps=456 q=-0.0 size=N/A time=00:09:18.68 bitrate=N/A speed=  19x    frame=13680 fps=457 q=-0.0 size=N/A time=00:09:30.57 bitrate=N/A speed=19.1x    frame=13932 fps=458 q=-0.0 size=N/A time=00:09:41.08 bitrate=N/A speed=19.1x    frame=14169 fps=458 q=-0.0 size=N/A time=00:09:50.96 bitrate=N/A speed=19.1x    frame=14452 fps=459 q=-0.0 size=N/A time=00:10:02.76 bitrate=N/A speed=19.2x    frame=14716 fps=460 q=-0.0 size=N/A time=00:10:13.77 bitrate=N/A speed=19.2x    frame=14993 fps=461 q=-0.0 size=N/A time=00:10:25.33 bitrate=N/A speed=19.2x    frame=15243 fps=462 q=-0.0 size=N/A time=00:10:35.76 bitrate=N/A speed=19.3x    frame=15503 fps=463 q=-0.0 size=N/A time=00:10:46.60 bitrate=N/A speed=19.3x    frame=15744 fps=462 q=-0.0 size=N/A time=00:10:56.65 bitrate=N/A speed=19.3x    frame=15983 fps=463 q=-0.0 size=N/A time=00:11:06.62 bitrate=N/A speed=19.3x    frame=16242 fps=463 q=-0.0 size=N/A time=00:11:17.42 bitrate=N/A speed=19.3x    frame=16490 fps=463 q=-0.0 size=N/A time=00:11:27.77 bitrate=N/A speed=19.3x    frame=16763 fps=464 q=-0.0 size=N/A time=00:11:39.15 bitrate=N/A speed=19.4x    frame=17038 fps=465 q=-0.0 size=N/A time=00:11:50.62 bitrate=N/A speed=19.4x    frame=17308 fps=466 q=-0.0 size=N/A time=00:12:01.88 bitrate=N/A speed=19.4x    frame=17545 fps=466 q=-0.0 size=N/A time=00:12:11.77 bitrate=N/A speed=19.4x    frame=17795 fps=466 q=-0.0 size=N/A time=00:12:22.19 bitrate=N/A speed=19.4x    frame=17982 fps=465 q=-0.0 size=N/A time=00:12:29.99 bitrate=N/A speed=19.4x    frame=18115 fps=462 q=-0.0 size=N/A time=00:12:35.54 bitrate=N/A speed=19.3x    frame=18246 fps=459 q=-0.0 size=N/A time=00:12:41.01 bitrate=N/A speed=19.2x    frame=18400 fps=457 q=-0.0 size=N/A time=00:12:47.43 bitrate=N/A speed=19.1x    frame=18547 fps=455 q=-0.0 size=N/A time=00:12:53.56 bitrate=N/A speed=  19x    frame=18829 fps=456 q=-0.0 size=N/A time=00:13:05.32 bitrate=N/A speed=  19x    frame=19109 fps=457 q=-0.0 size=N/A time=00:13:17.00 bitrate=N/A speed=19.1x    frame=19324 fps=457 q=-0.0 size=N/A time=00:13:25.97 bitrate=N/A speed=19.1x    frame=19615 fps=458 q=-0.0 size=N/A time=00:13:38.10 bitrate=N/A speed=19.1x    frame=19857 fps=458 q=-0.0 size=N/A time=00:13:48.20 bitrate=N/A speed=19.1x    frame=20116 fps=459 q=-0.0 size=N/A time=00:13:59.00 bitrate=N/A speed=19.1x    frame=20374 fps=459 q=-0.0 size=N/A time=00:14:09.76 bitrate=N/A speed=19.2x    frame=20641 fps=460 q=-0.0 size=N/A time=00:14:20.90 bitrate=N/A speed=19.2x    frame=20911 fps=461 q=-0.0 size=N/A time=00:14:32.16 bitrate=N/A speed=19.2x    frame=21163 fps=461 q=-0.0 size=N/A time=00:14:42.67 bitrate=N/A speed=19.2x    frame=21369 fps=460 q=-0.0 size=N/A time=00:14:51.26 bitrate=N/A speed=19.2x    frame=21643 fps=461 q=-0.0 size=N/A time=00:15:02.69 bitrate=N/A speed=19.2x    frame=21875 fps=461 q=-0.0 size=N/A time=00:15:12.36 bitrate=N/A speed=19.2x    frame=22142 fps=462 q=-0.0 size=N/A time=00:15:23.50 bitrate=N/A speed=19.3x    frame=22403 fps=462 q=-0.0 size=N/A time=00:15:34.39 bitrate=N/A speed=19.3x    frame=22652 fps=462 q=-0.0 size=N/A time=00:15:44.77 bitrate=N/A speed=19.3x    frame=22887 fps=462 q=-0.0 size=N/A time=00:15:54.57 bitrate=N/A speed=19.3x    frame=23129 fps=462 q=-0.0 size=N/A time=00:16:04.67 bitrate=N/A speed=19.3x    frame=23385 fps=463 q=-0.0 size=N/A time=00:16:15.34 bitrate=N/A speed=19.3x    frame=23629 fps=463 q=-0.0 size=N/A time=00:16:25.52 bitrate=N/A speed=19.3x    frame=23864 fps=463 q=-0.0 size=N/A time=00:16:35.32 bitrate=N/A speed=19.3x    frame=24062 fps=462 q=-0.0 size=N/A time=00:16:43.58 bitrate=N/A speed=19.3x    frame=24319 fps=462 q=-0.0 size=N/A time=00:16:54.30 bitrate=N/A speed=19.3x    frame=24591 fps=463 q=-0.0 size=N/A time=00:17:05.64 bitrate=N/A speed=19.3x    frame=24848 fps=463 q=-0.0 size=N/A time=00:17:16.36 bitrate=N/A speed=19.3x    frame=25096 fps=463 q=-0.0 size=N/A time=00:17:26.71 bitrate=N/A speed=19.3x    frame=25347 fps=464 q=-0.0 size=N/A time=00:17:37.18 bitrate=N/A speed=19.3x    frame=25596 fps=464 q=-0.0 size=N/A time=00:17:47.56 bitrate=N/A speed=19.3x    frame=25819 fps=463 q=-0.0 size=N/A time=00:17:56.86 bitrate=N/A speed=19.3x    frame=26059 fps=463 q=-0.0 size=N/A time=00:18:06.87 bitrate=N/A speed=19.3x    frame=26311 fps=464 q=-0.0 size=N/A time=00:18:17.38 bitrate=N/A speed=19.3x    frame=26569 fps=464 q=-0.0 size=N/A time=00:18:28.14 bitrate=N/A speed=19.4x    frame=26823 fps=464 q=-0.0 size=N/A time=00:18:38.78 bitrate=N/A speed=19.4x    frame=27074 fps=464 q=-0.0 size=N/A time=00:18:49.21 bitrate=N/A speed=19.4x    frame=27297 fps=464 q=-0.0 size=N/A time=00:18:58.51 bitrate=N/A speed=19.4x    frame=27524 fps=464 q=-0.0 size=N/A time=00:19:07.98 bitrate=N/A speed=19.3x    frame=27781 fps=464 q=-0.0 size=N/A time=00:19:18.69 bitrate=N/A speed=19.4x    frame=28000 fps=464 q=-0.0 size=N/A time=00:19:27.83 bitrate=N/A speed=19.4x    frame=28236 fps=464 q=-0.0 size=N/A time=00:19:37.67 bitrate=N/A speed=19.3x    frame=28458 fps=464 q=-0.0 size=N/A time=00:19:46.93 bitrate=N/A speed=19.3x    frame=28689 fps=463 q=-0.0 size=N/A time=00:19:56.57 bitrate=N/A speed=19.3x    frame=28910 fps=463 q=-0.0 size=N/A time=00:20:05.78 bitrate=N/A speed=19.3x    frame=29131 fps=463 q=-0.0 size=N/A time=00:20:15.00 bitrate=N/A speed=19.3x    frame=29382 fps=463 q=-0.0 size=N/A time=00:20:25.47 bitrate=N/A speed=19.3x    frame=29596 fps=463 q=-0.0 size=N/A time=00:20:34.39 bitrate=N/A speed=19.3x    frame=29775 fps=462 q=-0.0 size=N/A time=00:20:41.86 bitrate=N/A speed=19.3x    frame=29998 fps=462 q=-0.0 size=N/A time=00:20:51.16 bitrate=N/A speed=19.2x    frame=30249 fps=462 q=-0.0 size=N/A time=00:21:01.63 bitrate=N/A speed=19.3x    frame=30445 fps=461 q=-0.0 size=N/A time=00:21:09.81 bitrate=N/A speed=19.2x    frame=30682 fps=461 q=-0.0 size=N/A time=00:21:19.69 bitrate=N/A speed=19.2x    frame=30921 fps=461 q=-0.0 size=N/A time=00:21:29.66 bitrate=N/A speed=19.2x    frame=31184 fps=461 q=-0.0 size=N/A time=00:21:40.63 bitrate=N/A speed=19.2x    frame=31406 fps=461 q=-0.0 size=N/A time=00:21:49.89 bitrate=N/A speed=19.2x    frame=31669 fps=462 q=-0.0 size=N/A time=00:22:00.86 bitrate=N/A speed=19.3x    frame=31928 fps=462 q=-0.0 size=N/A time=00:22:11.66 bitrate=N/A speed=19.3x    frame=32094 fps=461 q=-0.0 size=N/A time=00:22:18.58 bitrate=N/A speed=19.2x    frame=32244 fps=460 q=-0.0 size=N/A time=00:22:24.84 bitrate=N/A speed=19.2x    frame=32357 fps=458 q=-0.0 size=N/A time=00:22:29.55 bitrate=N/A speed=19.1x    frame=32468 fps=456 q=-0.0 size=N/A time=00:22:34.18 bitrate=N/A speed=  19x    frame=32622 fps=455 q=-0.0 size=N/A time=00:22:40.60 bitrate=N/A speed=  19x    frame=32746 fps=453 q=-0.0 size=N/A time=00:22:45.78 bitrate=N/A speed=18.9x    frame=32891 fps=452 q=-0.0 size=N/A time=00:22:51.82 bitrate=N/A speed=18.9x    frame=33019 fps=451 q=-0.0 size=N/A time=00:22:57.16 bitrate=N/A speed=18.8x    frame=33140 fps=449 q=-0.0 size=N/A time=00:23:02.21 bitrate=N/A speed=18.7x    frame=33303 fps=448 q=-0.0 size=N/A time=00:23:09.01 bitrate=N/A speed=18.7x    frame=33452 fps=447 q=-0.0 size=N/A time=00:23:15.22 bitrate=N/A speed=18.7x    frame=33590 fps=446 q=-0.0 size=N/A time=00:23:20.98 bitrate=N/A speed=18.6x    frame=33730 fps=445 q=-0.0 size=N/A time=00:23:26.82 bitrate=N/A speed=18.6x    frame=33873 fps=444 q=-0.0 size=N/A time=00:23:32.78 bitrate=N/A speed=18.5x    frame=34015 fps=443 q=-0.0 size=N/A time=00:23:38.70 bitrate=N/A speed=18.5x    [Parsed_psnr_10 @ 0000022f59629d00] PSNR y:47.778094 u:50.627246 v:50.104284 average:48.480326 min:37.065114 max:inf
[out#0/null @ 0000022f51b42280] video:14645KiB audio:266900KiB subtitle:0KiB other streams:0KiB global headers:0KiB muxing overhead: unknown
frame=34082 fps=442 q=-0.0 Lsize=N/A time=00:23:41.50 bitrate=N/A speed=18.5x    
